<mxfile host="app.diagrams.net" modified="2021-01-20T14:37:46.806Z" agent="5.0 (Windows NT 10.0; Win64; x64) AppleWebKit/537.36 (KHTML, like Gecko) Chrome/87.0.4280.141 Safari/537.36" etag="nzk7xkr0oSnwvEEMLHQP" version="14.2.4" type="github">
  <diagram id="YeW8bBZbZxrwYv80Prwf" name="Page-1">
    <mxGraphModel dx="1100" dy="688" grid="1" gridSize="10" guides="1" tooltips="1" connect="1" arrows="1" fold="1" page="1" pageScale="1" pageWidth="827" pageHeight="1169" math="0" shadow="0">
      <root>
        <mxCell id="0" />
        <mxCell id="1" parent="0" />
        <mxCell id="Jh0fUINojIO2lRBo37gL-9" style="edgeStyle=orthogonalEdgeStyle;rounded=0;orthogonalLoop=1;jettySize=auto;html=1;exitX=0.5;exitY=1;exitDx=0;exitDy=0;entryX=0.5;entryY=0;entryDx=0;entryDy=0;fontSize=14;" edge="1" parent="1" source="Jh0fUINojIO2lRBo37gL-1" target="Jh0fUINojIO2lRBo37gL-7">
          <mxGeometry relative="1" as="geometry" />
        </mxCell>
        <mxCell id="Jh0fUINojIO2lRBo37gL-1" value="" style="ellipse;shape=doubleEllipse;html=1;dashed=0;whitespace=wrap;aspect=fixed;fillColor=#0D0D0D;" vertex="1" parent="1">
          <mxGeometry x="83" y="220" width="40" height="40" as="geometry" />
        </mxCell>
        <mxCell id="Jh0fUINojIO2lRBo37gL-13" style="edgeStyle=orthogonalEdgeStyle;rounded=0;orthogonalLoop=1;jettySize=auto;html=1;exitX=0.5;exitY=1;exitDx=0;exitDy=0;entryX=0.5;entryY=0;entryDx=0;entryDy=0;fontSize=14;" edge="1" parent="1" source="Jh0fUINojIO2lRBo37gL-7" target="Jh0fUINojIO2lRBo37gL-10">
          <mxGeometry relative="1" as="geometry" />
        </mxCell>
        <mxCell id="Jh0fUINojIO2lRBo37gL-7" value="Ввод i" style="rounded=1;whiteSpace=wrap;html=1;fillColor=#FCFAFA;fontSize=14;" vertex="1" parent="1">
          <mxGeometry x="50" y="280" width="106" height="30" as="geometry" />
        </mxCell>
        <mxCell id="Jh0fUINojIO2lRBo37gL-8" value="" style="ellipse;html=1;shape=endState;fillColor=#000000;strokeColor=#ff0000;" vertex="1" parent="1">
          <mxGeometry x="730" y="365" width="40" height="40" as="geometry" />
        </mxCell>
        <mxCell id="Jh0fUINojIO2lRBo37gL-10" value="" style="rhombus;whiteSpace=wrap;html=1;fillColor=#FCFAFA;" vertex="1" parent="1">
          <mxGeometry x="78" y="360" width="50" height="50" as="geometry" />
        </mxCell>
        <mxCell id="Jh0fUINojIO2lRBo37gL-12" style="edgeStyle=orthogonalEdgeStyle;rounded=0;orthogonalLoop=1;jettySize=auto;html=1;exitX=1;exitY=0.5;exitDx=0;exitDy=0;entryX=0;entryY=0.5;entryDx=0;entryDy=0;fontSize=14;" edge="1" parent="1" source="Jh0fUINojIO2lRBo37gL-11" target="Jh0fUINojIO2lRBo37gL-8">
          <mxGeometry relative="1" as="geometry" />
        </mxCell>
        <mxCell id="Jh0fUINojIO2lRBo37gL-11" value="" style="rhombus;whiteSpace=wrap;html=1;fillColor=#FCFAFA;" vertex="1" parent="1">
          <mxGeometry x="650" y="360" width="50" height="50" as="geometry" />
        </mxCell>
        <mxCell id="Jh0fUINojIO2lRBo37gL-14" value="Вывод &quot;31 days&quot;" style="rounded=1;whiteSpace=wrap;html=1;fillColor=#FCFAFA;fontSize=14;" vertex="1" parent="1">
          <mxGeometry x="360" y="250" width="187" height="40" as="geometry" />
        </mxCell>
        <mxCell id="Jh0fUINojIO2lRBo37gL-15" value="Вывод &quot;30 days&quot;" style="rounded=1;whiteSpace=wrap;html=1;fillColor=#FCFAFA;fontSize=14;" vertex="1" parent="1">
          <mxGeometry x="360" y="320" width="187" height="40" as="geometry" />
        </mxCell>
        <mxCell id="Jh0fUINojIO2lRBo37gL-16" value="Вывод &quot;28 days&quot;" style="rounded=1;whiteSpace=wrap;html=1;fillColor=#FCFAFA;fontSize=14;" vertex="1" parent="1">
          <mxGeometry x="360" y="392" width="187" height="40" as="geometry" />
        </mxCell>
        <mxCell id="Jh0fUINojIO2lRBo37gL-17" value="Вывод &lt;br&gt;&quot;There is no such month!&quot;" style="rounded=1;whiteSpace=wrap;html=1;fillColor=#FCFAFA;fontSize=14;" vertex="1" parent="1">
          <mxGeometry x="360" y="460" width="187" height="40" as="geometry" />
        </mxCell>
        <mxCell id="Jh0fUINojIO2lRBo37gL-20" value="" style="endArrow=classic;html=1;fontSize=14;exitX=1;exitY=0.5;exitDx=0;exitDy=0;entryX=0;entryY=0.5;entryDx=0;entryDy=0;" edge="1" parent="1" source="Jh0fUINojIO2lRBo37gL-10" target="Jh0fUINojIO2lRBo37gL-14">
          <mxGeometry width="50" height="50" relative="1" as="geometry">
            <mxPoint x="390" y="340" as="sourcePoint" />
            <mxPoint x="440" y="290" as="targetPoint" />
            <Array as="points">
              <mxPoint x="200" y="270" />
            </Array>
          </mxGeometry>
        </mxCell>
        <mxCell id="Jh0fUINojIO2lRBo37gL-21" value="" style="endArrow=classic;html=1;fontSize=14;entryX=0;entryY=0.5;entryDx=0;entryDy=0;exitX=1;exitY=0.5;exitDx=0;exitDy=0;" edge="1" parent="1" source="Jh0fUINojIO2lRBo37gL-14" target="Jh0fUINojIO2lRBo37gL-11">
          <mxGeometry width="50" height="50" relative="1" as="geometry">
            <mxPoint x="390" y="340" as="sourcePoint" />
            <mxPoint x="440" y="290" as="targetPoint" />
          </mxGeometry>
        </mxCell>
        <mxCell id="Jh0fUINojIO2lRBo37gL-22" value="" style="endArrow=classic;html=1;fontSize=14;exitX=1;exitY=0.5;exitDx=0;exitDy=0;entryX=0;entryY=0.5;entryDx=0;entryDy=0;" edge="1" parent="1" source="Jh0fUINojIO2lRBo37gL-15" target="Jh0fUINojIO2lRBo37gL-11">
          <mxGeometry width="50" height="50" relative="1" as="geometry">
            <mxPoint x="390" y="440" as="sourcePoint" />
            <mxPoint x="440" y="390" as="targetPoint" />
          </mxGeometry>
        </mxCell>
        <mxCell id="Jh0fUINojIO2lRBo37gL-23" value="" style="endArrow=classic;html=1;fontSize=14;entryX=0;entryY=0.5;entryDx=0;entryDy=0;exitX=1;exitY=0.5;exitDx=0;exitDy=0;" edge="1" parent="1" source="Jh0fUINojIO2lRBo37gL-16" target="Jh0fUINojIO2lRBo37gL-11">
          <mxGeometry width="50" height="50" relative="1" as="geometry">
            <mxPoint x="580" y="370" as="sourcePoint" />
            <mxPoint x="440" y="390" as="targetPoint" />
          </mxGeometry>
        </mxCell>
        <mxCell id="Jh0fUINojIO2lRBo37gL-24" value="" style="endArrow=classic;html=1;fontSize=14;entryX=0;entryY=0.5;entryDx=0;entryDy=0;exitX=1;exitY=0.5;exitDx=0;exitDy=0;" edge="1" parent="1" source="Jh0fUINojIO2lRBo37gL-17" target="Jh0fUINojIO2lRBo37gL-11">
          <mxGeometry width="50" height="50" relative="1" as="geometry">
            <mxPoint x="390" y="440" as="sourcePoint" />
            <mxPoint x="440" y="390" as="targetPoint" />
          </mxGeometry>
        </mxCell>
        <mxCell id="Jh0fUINojIO2lRBo37gL-25" value="" style="endArrow=classic;html=1;fontSize=14;exitX=1;exitY=0.5;exitDx=0;exitDy=0;entryX=0;entryY=0.5;entryDx=0;entryDy=0;" edge="1" parent="1" source="Jh0fUINojIO2lRBo37gL-10" target="Jh0fUINojIO2lRBo37gL-15">
          <mxGeometry width="50" height="50" relative="1" as="geometry">
            <mxPoint x="390" y="440" as="sourcePoint" />
            <mxPoint x="440" y="390" as="targetPoint" />
            <Array as="points">
              <mxPoint x="190" y="340" />
            </Array>
          </mxGeometry>
        </mxCell>
        <mxCell id="Jh0fUINojIO2lRBo37gL-26" value="" style="endArrow=classic;html=1;fontSize=14;exitX=1;exitY=0.5;exitDx=0;exitDy=0;entryX=0;entryY=0.5;entryDx=0;entryDy=0;" edge="1" parent="1" source="Jh0fUINojIO2lRBo37gL-10" target="Jh0fUINojIO2lRBo37gL-16">
          <mxGeometry width="50" height="50" relative="1" as="geometry">
            <mxPoint x="90" y="475" as="sourcePoint" />
            <mxPoint x="322" y="430" as="targetPoint" />
            <Array as="points">
              <mxPoint x="190" y="412" />
            </Array>
          </mxGeometry>
        </mxCell>
        <mxCell id="Jh0fUINojIO2lRBo37gL-27" value="" style="endArrow=classic;html=1;fontSize=14;exitX=1;exitY=0.5;exitDx=0;exitDy=0;entryX=0;entryY=0.5;entryDx=0;entryDy=0;" edge="1" parent="1" source="Jh0fUINojIO2lRBo37gL-10" target="Jh0fUINojIO2lRBo37gL-17">
          <mxGeometry width="50" height="50" relative="1" as="geometry">
            <mxPoint x="138" y="420" as="sourcePoint" />
            <mxPoint x="370" y="445" as="targetPoint" />
            <Array as="points">
              <mxPoint x="200" y="480" />
            </Array>
          </mxGeometry>
        </mxCell>
        <mxCell id="Jh0fUINojIO2lRBo37gL-28" value="&lt;pre&gt;&lt;font face=&quot;jetbrains mono, monospace&quot;&gt;[i=1 or i=3 or i=5 &lt;/font&gt;&lt;/pre&gt;&lt;pre&gt;&lt;font face=&quot;jetbrains mono, monospace&quot;&gt;or i=7 or i=8 &lt;/font&gt;&lt;/pre&gt;&lt;pre&gt;&lt;font face=&quot;jetbrains mono, monospace&quot;&gt;or i=10 or i=12]&lt;/font&gt;&lt;br&gt;&lt;/pre&gt;" style="text;html=1;strokeColor=none;fillColor=none;align=center;verticalAlign=middle;whiteSpace=wrap;rounded=0;fontSize=14;labelBackgroundColor=none;" vertex="1" parent="1">
          <mxGeometry x="196" y="170" width="164" height="90" as="geometry" />
        </mxCell>
        <mxCell id="Jh0fUINojIO2lRBo37gL-32" value="&lt;pre style=&quot;background-color: rgb(43 , 43 , 43) ; font-family: &amp;#34;jetbrains mono&amp;#34; , monospace&quot;&gt;&lt;br&gt;&lt;/pre&gt;" style="text;whiteSpace=wrap;html=1;fontSize=14;" vertex="1" parent="1">
          <mxGeometry x="209" y="290" width="410" height="30" as="geometry" />
        </mxCell>
        <mxCell id="Jh0fUINojIO2lRBo37gL-33" value="[i=4 or i=6 or i=9 or i=11]" style="text;whiteSpace=wrap;html=1;fontSize=14;fontColor=#000000;" vertex="1" parent="1">
          <mxGeometry x="196" y="300" width="160" height="30" as="geometry" />
        </mxCell>
        <mxCell id="Jh0fUINojIO2lRBo37gL-34" value="[i=2]" style="text;whiteSpace=wrap;html=1;fontSize=14;fontColor=#000000;align=center;" vertex="1" parent="1">
          <mxGeometry x="198" y="380" width="160" height="30" as="geometry" />
        </mxCell>
        <mxCell id="Jh0fUINojIO2lRBo37gL-35" value="[else]" style="text;whiteSpace=wrap;html=1;fontSize=14;fontFamily=Helvetica;fontColor=#000000;align=center;" vertex="1" parent="1">
          <mxGeometry x="180" y="450" width="180" height="30" as="geometry" />
        </mxCell>
      </root>
    </mxGraphModel>
  </diagram>
</mxfile>
